HIERARCHY
ROOT Hips
{
	OFFSET -0.001795 -0.223333 0.028219
	CHANNELS 6 Xposition Yposition Zposition Zrotation Yrotation Xrotation
	JOINT LeftUpLeg
	{
		OFFSET 0.069520 -0.091406 -0.006815
		CHANNELS 3 Zrotation Yrotation Xrotation
		JOINT LeftLeg
		{
			OFFSET 0.034277 -0.375199 -0.004496
			CHANNELS 3 Zrotation Yrotation Xrotation
			JOINT LeftFoot
			{
				OFFSET -0.013596 -0.397961 -0.043693
				CHANNELS 3 Zrotation Yrotation Xrotation
				JOINT LeftToe
				{
					OFFSET 0.026358 -0.055791 0.119288
					CHANNELS 3 Zrotation Yrotation Xrotation
					End Site
					{
						OFFSET 0.000000 0.000000 0.000000
					}
				}
			}
		}
	}
	JOINT RightUpLeg
	{
		OFFSET -0.067670 -0.090522 -0.004320
		CHANNELS 3 Zrotation Yrotation Xrotation
		JOINT RightLeg
		{
			OFFSET -0.038290 -0.382569 -0.008850
			CHANNELS 3 Zrotation Yrotation Xrotation
			JOINT RightFoot
			{
				OFFSET 0.015774 -0.398415 -0.042312
				CHANNELS 3 Zrotation Yrotation Xrotation
				JOINT RightToe
				{
					OFFSET -0.025372 -0.048144 0.123348
					CHANNELS 3 Zrotation Yrotation Xrotation
					End Site
					{
						OFFSET 0.000000 0.000000 0.000000
					}
				}
			}
		}
	}
	JOINT Spine
	{
		OFFSET -0.002533 0.108963 -0.026696
		CHANNELS 3 Zrotation Yrotation Xrotation
		JOINT Spine1
		{
			OFFSET 0.005487 0.135180 0.001092
			CHANNELS 3 Zrotation Yrotation Xrotation
			JOINT Spine2
			{
				OFFSET 0.001457 0.052922 0.025425
				CHANNELS 3 Zrotation Yrotation Xrotation
				JOINT Neck
				{
					OFFSET -0.002778 0.213870 -0.042857
					CHANNELS 3 Zrotation Yrotation Xrotation
					JOINT Head
					{
						OFFSET 0.005152 0.064970 0.051349
						CHANNELS 3 Zrotation Yrotation Xrotation
						End Site
						{
							OFFSET 0.000000 0.000000 0.000000
						}
					}
				}
				JOINT LeftShoulder
				{
					OFFSET 0.078845 0.121749 -0.034090
					CHANNELS 3 Zrotation Yrotation Xrotation
					JOINT LeftArm
					{
						OFFSET 0.090977 0.030469 -0.008868
						CHANNELS 3 Zrotation Yrotation Xrotation
						JOINT LeftForeArm
						{
							OFFSET 0.259612 -0.012772 -0.027456
							CHANNELS 3 Zrotation Yrotation Xrotation
							JOINT LeftHand
							{
								OFFSET 0.249234 0.008986 -0.001171
								CHANNELS 3 Zrotation Yrotation Xrotation
								End Site
								{
									OFFSET 0.000000 0.000000 0.000000
								}
							}
						}
					}
				}
				JOINT RightShoulder
				{
					OFFSET -0.081759 0.118833 -0.038615
					CHANNELS 3 Zrotation Yrotation Xrotation
					JOINT RightArm
					{
						OFFSET -0.096012 0.032551 -0.009143
						CHANNELS 3 Zrotation Yrotation Xrotation
						JOINT RightForeArm
						{
							OFFSET -0.253742 -0.013329 -0.021401
							CHANNELS 3 Zrotation Yrotation Xrotation
							JOINT RightHand
							{
								OFFSET -0.255298 0.007772 -0.005559
								CHANNELS 3 Zrotation Yrotation Xrotation
								End Site
								{
									OFFSET 0.000000 0.000000 0.000000
								}
							}
						}
					}
				}
			}
		}
	}
}
MOTION
Frames: 10
Frame Time: 0.050000
0.482039 0.456770 -1.051648 -20.237373 -4.598261 28.288183 57.786834 7.282960 -14.601070 -4.582183 11.883090 98.859035 -3.436118 -10.476067 -3.998812 0.000000 0.000000 0.000000 -37.968486 -8.324575 -57.672868 32.070656 -42.240728 98.000071 -12.182206 -29.823245 -6.462587 0.000000 0.000000 0.000000 -13.455856 10.183299 67.364030 2.946124 0.640860 -36.574745 2.246293 0.908680 16.514417 1.289040 0.901238 -26.974033 0.000000 0.000000 0.000000 28.683854 -33.692490 6.184907 7.188446 -41.303375 -4.893534 30.631842 5.607986 1.554027 0.000000 0.000000 0.000000 -0.250128 22.294144 8.800932 -7.183743 33.693032 -4.730121 -38.172620 0.289100 1.289990 0.000000 0.000000 0.000000
0.514599 0.453595 -1.105981 -16.225095 -3.248810 29.859648 56.676372 6.811919 -16.223759 -6.943559 14.081332 94.827912 2.249224 -6.427366 -18.472400 0.000000 0.000000 0.000000 -33.646482 -5.997557 -52.555634 24.182825 -36.037452 106.430484 -9.984936 -23.021719 8.587873 0.000000 0.000000 0.000000 -12.923695 8.905148 66.161277 -0.118631 0.976527 -36.741191 1.653785 -2.072957 17.102308 0.909134 1.033566 -30.890326 0.000000 0.000000 0.000000 27.484053 -32.860258 6.223133 1.624370 -45.697574 -3.293078 28.868900 2.175063 0.774817 0.000000 0.000000 0.000000 -5.778724 24.836719 8.842740 -6.637276 36.944337 -5.500351 -38.372010 -3.198659 2.302819 0.000000 0.000000 0.000000
0.550489 0.452525 -1.160697 -13.755597 -3.240314 31.076884 52.062048 6.563653 -18.556720 -6.156863 12.926397 93.839220 5.298841 1.319643 -23.055270 0.000000 0.000000 0.000000 -29.870714 -3.869818 -48.280212 23.816951 -33.213966 103.965156 -10.183565 -23.072093 15.391883 0.000000 0.000000 0.000000 -12.872589 8.842967 66.393031 -1.678466 1.125365 -35.695294 1.797095 0.045937 15.307016 1.339933 1.299478 -32.637798 0.000000 0.000000 0.000000 27.098288 -32.544141 6.666707 -2.002891 -50.523861 -2.692329 29.075261 -1.410361 -0.103594 0.000000 0.000000 0.000000 -9.675124 22.955600 7.751598 -8.475918 38.209013 -5.789562 -34.416626 -5.373545 2.763179 0.000000 0.000000 0.000000
0.592434 0.462417 -1.217527 -13.182840 -4.469621 30.351185 45.118258 5.630511 -19.102258 -7.799974 16.048986 95.681637 0.995341 -0.863122 -5.822762 0.000000 0.000000 0.000000 -28.566415 -2.730571 -45.536899 26.164082 -32.697895 99.321459 -12.539270 -28.083438 9.116672 0.000000 0.000000 0.000000 -11.302766 8.949067 71.564744 -4.964902 1.368195 -39.712360 3.015979 2.533668 16.428968 0.073153 2.273019 -35.847073 0.000000 0.000000 0.000000 26.284644 -33.104381 6.966807 -0.821220 -53.160546 -3.941995 30.693322 -4.605381 -0.948534 0.000000 0.000000 0.000000 -13.273043 24.129101 7.319101 -9.722677 33.966522 -4.823084 -31.695941 -6.622223 2.834352 0.000000 0.000000 0.000000
0.637542 0.475523 -1.275552 -13.869601 -4.414168 32.090271 38.782417 3.928759 -18.239281 -12.323536 21.144731 90.770046 -5.018417 -4.507504 10.053287 0.000000 0.000000 0.000000 -28.205282 -2.496786 -46.111788 32.751514 -36.077467 90.443752 -14.982801 -34.764369 2.534440 0.000000 0.000000 0.000000 -9.041055 7.412463 72.862164 -5.613740 1.391142 -39.378240 2.418571 6.041888 16.193482 2.908982 1.660803 -36.066885 0.000000 0.000000 0.000000 23.521455 -30.750219 7.621251 3.710510 -58.545869 -7.648391 28.581957 -5.228686 -1.020141 0.000000 0.000000 0.000000 -13.136045 25.154981 7.748645 -16.023540 31.849209 -5.332258 -23.545628 -7.693839 2.208235 0.000000 0.000000 0.000000
0.679983 0.494022 -1.335360 -13.547785 -1.431735 35.103073 33.580379 3.593523 -23.950802 -16.254078 22.898688 86.868652 0.725557 1.957746 0.857399 0.000000 0.000000 0.000000 -26.670409 -3.094060 -49.002708 36.693727 -37.582990 82.949815 -14.612929 -39.009367 -9.190465 0.000000 0.000000 0.000000 -6.513321 3.785165 71.821685 -4.814341 1.357960 -38.308327 3.819273 10.492542 17.221378 2.071260 2.515383 -37.854533 0.000000 0.000000 0.000000 19.114966 -32.627490 9.144652 8.135225 -58.497996 -11.171950 27.862808 -7.085592 -1.381642 0.000000 0.000000 0.000000 -17.723203 22.952687 5.966209 -17.255459 32.707302 -5.013888 -17.659512 -9.134697 1.832211 0.000000 0.000000 0.000000
0.715866 0.516833 -1.394703 -10.792840 0.391453 39.656323 26.298672 2.117408 -27.079627 -17.546290 20.848547 81.256482 3.347089 1.508931 -13.783342 0.000000 0.000000 0.000000 -27.385868 -4.795907 -54.263912 40.977263 -40.320108 77.596829 -15.773219 -41.502450 -9.428268 0.000000 0.000000 0.000000 -3.502096 0.237449 71.063801 -6.071332 1.335343 -42.261054 4.361253 9.603106 22.961016 1.633290 2.693369 -40.017088 0.000000 0.000000 0.000000 17.645639 -31.613089 9.108054 11.495674 -58.510197 -13.055653 30.865958 -7.591224 -1.585240 0.000000 0.000000 0.000000 -20.664590 21.922810 4.975210 -17.522003 33.009713 -5.193799 -19.158154 -10.255245 2.174798 0.000000 0.000000 0.000000
0.744637 0.532170 -1.452146 -9.769124 1.157865 43.382435 22.588314 0.559445 -22.389839 -14.238506 14.459451 72.776953 1.369430 -3.211699 -12.201448 0.000000 0.000000 0.000000 -26.808618 -5.464135 -58.411311 46.126266 -41.893797 71.619265 -17.579387 -44.334112 -7.504222 0.000000 0.000000 0.000000 -1.162002 -1.974341 68.647206 -6.768843 1.471885 -37.892673 1.974261 9.193495 20.188410 2.156948 2.349388 -36.726005 0.000000 0.000000 0.000000 16.368747 -30.785470 9.298707 13.517500 -55.183102 -12.818275 29.645124 -9.469233 -1.883517 0.000000 0.000000 0.000000 -15.316107 24.480451 7.499720 -22.915301 29.822514 -5.826823 -19.397398 -9.803406 2.076545 0.000000 0.000000 0.000000
0.768218 0.549241 -1.507317 -7.828275 2.824301 46.125512 19.608365 -0.366062 -20.266511 -7.927398 6.525097 66.546951 -1.869239 -1.859459 4.483568 0.000000 0.000000 0.000000 -26.309709 -7.110003 -63.442007 49.964592 -42.832637 66.588292 -17.730784 -48.106732 -12.845010 0.000000 0.000000 0.000000 -0.026544 -3.908707 69.061744 -8.327599 1.496293 -39.441187 3.081109 6.012819 21.888349 -1.033992 3.041116 -36.822426 0.000000 0.000000 0.000000 14.041915 -32.348084 10.207968 14.646254 -49.585023 -11.195601 29.832045 -5.889933 -1.022505 0.000000 0.000000 0.000000 -15.083685 25.614174 7.998215 -22.447288 29.865741 -6.272275 -24.220897 -8.520936 2.417278 0.000000 0.000000 0.000000
0.791302 0.555352 -1.562035 -7.514975 4.853938 47.295425 22.811764 -0.906218 -16.391241 -6.910239 4.606281 59.750148 -3.005873 1.814729 18.698012 0.000000 0.000000 0.000000 -26.810234 -9.637591 -68.658339 50.911198 -44.193122 66.518347 -18.427326 -48.989013 -12.624891 0.000000 0.000000 0.000000 -0.597727 -4.571097 70.744487 -5.283258 1.331292 -39.105433 2.993370 6.466088 21.600253 -0.423556 2.776809 -34.586621 0.000000 0.000000 0.000000 11.937257 -35.181648 11.609021 17.752218 -42.047124 -10.247142 29.623594 -5.866665 -1.083716 0.000000 0.000000 0.000000 -12.841398 28.548093 9.666527 -23.124823 27.617149 -5.795493 -27.366919 -6.206134 2.310475 0.000000 0.000000 0.000000
